<svg width="334" height="216" viewBox="0 0 334 216" fill="none" xmlns="http://www.w3.org/2000/svg">
<g clip-path="url(#clip0_66_489)">
<path d="M304.643 215.361L295.104 186.647C295.104 186.647 305.597 197.113 305.597 205.7L303.713 185.842C303.713 185.842 309.094 193.087 308.556 204.09C308.018 215.093 304.643 215.361 304.643 215.361Z" fill="#E6E6E6"/>
<path d="M99.7862 189.216L90.4761 161.192C90.4761 161.192 100.717 171.406 100.717 179.787L98.8785 160.406C98.8785 160.406 104.13 167.477 103.605 178.216C103.08 188.954 99.7862 189.216 99.7862 189.216Z" fill="#E6E6E6"/>
<path d="M245.099 202.147C245.115 220.582 208.458 214.911 163.582 214.95C118.706 214.989 82.6038 220.722 82.5879 202.287C82.5719 183.853 119.215 179.812 164.091 179.773C208.967 179.734 245.083 183.713 245.099 202.147Z" fill="#E6E6E6"/>
<path d="M334 214.939H0V215.783H334V214.939Z" fill="#3F3D56"/>
<path d="M213.648 177.251H207.781L204.989 154.68H213.648V177.251Z" fill="#A0616A"/>
<path d="M202.939 175.579H214.906V182.685H196.467V182.035C196.467 180.323 197.149 178.681 198.363 177.47C199.576 176.26 201.223 175.579 202.939 175.579Z" fill="#2F2E41"/>
<path d="M256.772 210.566H250.905L248.113 187.994H256.772V210.566Z" fill="#A0616A"/>
<path d="M246.063 208.894H258.03V216H239.591V215.35C239.591 213.638 240.273 211.996 241.487 210.785C242.7 209.574 244.347 208.894 246.063 208.894Z" fill="#2F2E41"/>
<path d="M283.834 143.51C284.24 143.019 284.533 142.445 284.692 141.83C284.852 141.214 284.874 140.571 284.757 139.945C284.64 139.32 284.388 138.728 284.017 138.211C283.646 137.694 283.165 137.264 282.61 136.952L268.984 81.585L260.271 85.324L276.479 138.859C276.015 139.824 275.922 140.926 276.218 141.955C276.514 142.985 277.179 143.87 278.085 144.443C278.992 145.016 280.078 145.238 281.138 145.066C282.197 144.894 283.157 144.34 283.834 143.51Z" fill="#A0616A"/>
<path d="M273.207 31.6124C272.72 31.1053 272.128 30.7108 271.473 30.4565C270.817 30.2023 270.113 30.0945 269.411 30.1408C268.709 30.1872 268.026 30.3865 267.41 30.7247C266.793 31.0629 266.259 31.5318 265.844 32.0984L244.753 34.5135L247.961 42.6277L267.142 39.0471C268.143 39.6795 269.341 39.9239 270.51 39.7339C271.679 39.544 272.738 38.9329 273.485 38.0165C274.233 37.1001 274.617 35.942 274.566 34.7617C274.514 33.5813 274.031 32.4608 273.207 31.6124Z" fill="#A0616A"/>
<path d="M238.451 137.768L247.654 206.663L259.109 204.311C259.109 204.311 257.424 154.136 263.151 148.087C268.879 142.038 255.785 131.442 255.785 131.442L238.451 137.768Z" fill="#2F2E41"/>
<path d="M242.256 118.791L238.028 125.116C238.028 125.116 205.474 111.622 205.474 133.129C205.474 154.635 203.611 169.231 202.937 170.239C202.263 171.247 210.732 173.863 214.775 173.191C214.775 173.191 219.762 138.519 219.425 136.502C219.425 136.502 251.36 152.12 257.424 150.775C263.488 149.431 264.921 144.673 265.932 141.985C266.943 139.296 265.509 117.947 265.509 117.947L245.296 111.795L242.256 118.791Z" fill="#2F2E41"/>
<path d="M242.826 80.8123L241.621 79.3699C241.621 79.3699 228.124 49.0797 233.427 40.9062C238.729 32.7326 261.866 31.5306 262.589 32.0114C263.313 32.4922 260.862 38.7345 262.55 41.6193C262.55 41.6193 244.626 45.4953 243.421 45.9761C242.216 46.4569 252.708 64.2248 252.708 64.2248L251.503 75.0427L242.826 80.8123Z" fill="#CCCCCC"/>
<path d="M266.446 65.9074C266.446 65.9074 253.913 67.3498 253.431 67.3498C252.949 67.3498 252.708 64.2246 252.708 64.2246L241.621 79.3697C241.621 79.3697 236.159 123.307 237.605 122.586C239.051 121.865 265.722 126.007 265.963 124.084C266.204 122.161 265.722 112.545 266.446 112.064C267.169 111.583 278.978 81.7737 278.978 81.7737C278.978 81.7737 277.773 75.5233 273.676 73.3597C269.579 71.1962 266.446 65.9074 266.446 65.9074Z" fill="#CCCCCC"/>
<path d="M275.122 77.687L278.978 81.7738C278.978 81.7738 284.708 128.735 281.575 130.177C278.442 131.619 272.273 131.442 272.273 131.442L266.205 109.179L275.122 77.687Z" fill="#CCCCCC"/>
<path d="M254.402 62.9335C260.529 62.9335 265.495 57.9795 265.495 51.8685C265.495 45.7574 260.529 40.8035 254.402 40.8035C248.275 40.8035 243.309 45.7574 243.309 51.8685C243.309 57.9795 248.275 62.9335 254.402 62.9335Z" fill="#A0616A"/>
<path d="M251.799 53.5951C251.649 51.2992 248.745 51.2205 246.438 51.1988C244.132 51.177 241.374 51.2592 240.069 49.3621C239.207 48.1083 239.371 46.3678 240.084 45.0237C240.796 43.6795 241.969 42.6457 243.122 41.6511C246.099 39.0834 249.167 36.5361 252.741 34.8926C256.315 33.2491 260.503 32.5851 264.21 33.9044C268.764 35.525 274.919 43.8675 275.451 48.6605C275.982 53.4536 274.062 58.3397 270.824 61.9214C267.587 65.503 260.178 64.0579 255.515 65.3321C258.35 61.3303 256.481 54.0589 251.94 52.1901L251.799 53.5951Z" fill="#2F2E41"/>
<path d="M152.93 196.722C167.638 196.722 179.561 184.83 179.561 170.159C179.561 155.489 167.638 143.596 152.93 143.596C138.222 143.596 126.299 155.489 126.299 170.159C126.299 184.83 138.222 196.722 152.93 196.722Z" fill="#FF3737"/>
<path d="M135.146 141.709C131.455 141.709 127.843 140.643 124.748 138.638C121.652 136.633 119.205 133.776 117.704 130.413L75.4454 35.4914C74.0456 32.3471 73.3052 28.9504 73.2699 25.5102C73.2345 22.0701 73.9049 18.659 75.2399 15.4868C76.5748 12.3145 78.546 9.44807 81.0325 7.06365C83.5189 4.67924 86.4679 2.82722 89.6983 1.62142C92.9287 0.415626 96.3722 -0.118465 99.8172 0.0519812C103.262 0.222428 106.636 1.09381 109.731 2.61256C112.826 4.13132 115.576 6.26536 117.814 8.88351C120.052 11.5017 121.729 14.5486 122.742 17.837L153.342 117.111C154.219 119.953 154.414 122.96 153.914 125.89C153.413 128.821 152.231 131.594 150.461 133.986C148.692 136.378 146.384 138.323 143.724 139.664C141.065 141.006 138.126 141.706 135.146 141.709Z" fill="#FF3737"/>
</g>
<defs>
<clipPath id="clip0_66_489">
<rect width="334" height="216" fill="white"/>
</clipPath>
</defs>
</svg>
