<svg width="328" height="227" viewBox="0 0 328 227" fill="none" xmlns="http://www.w3.org/2000/svg">
<path d="M322.415 0H5.58522C4.09173 0.0145329 2.66499 0.621475 1.61796 1.68769C0.570932 2.7539 -0.0108894 4.19231 0.000154395 5.68739V221.166C-0.0084859 222.659 0.57449 224.095 1.62134 225.159C2.66819 226.222 4.09357 226.828 5.58522 226.841H322.415C323.907 226.827 325.332 226.222 326.379 225.159C327.426 224.095 328.009 222.659 328 221.166V5.68739C328.011 4.19245 327.429 2.75416 326.383 1.68798C325.336 0.621787 323.909 0.014749 322.416 0H322.415Z" fill="#09090D"/>
<path d="M313.257 1.29956H6.12655C4.68944 1.30228 3.31212 1.87562 2.29681 2.89375C1.28151 3.91189 0.711152 5.29165 0.710938 6.73026V212.494C0.713 213.932 1.28424 215.309 2.29942 216.325C3.3146 217.342 4.69087 217.914 6.12655 217.916H313.257C314.693 217.914 316.069 217.342 317.084 216.325C318.099 215.309 318.671 213.932 318.673 212.494V6.73067C318.673 5.29253 318.103 3.91313 317.088 2.89506C316.073 1.87698 314.697 1.30334 313.26 1.29997L313.257 1.29956Z" fill="#1B1C22"/>
<path d="M164.301 147.662C162.586 147.657 160.879 147.436 159.219 147.005L158.89 146.914L158.587 146.762C147.614 141.255 138.357 133.98 131.072 125.141C125.042 117.78 120.341 109.424 117.18 100.446C113.399 89.6976 111.581 78.3564 111.81 66.9636C111.815 66.7246 111.819 66.5398 111.819 66.4124C111.819 60.8746 114.89 56.0151 119.642 54.0327C123.28 52.5156 156.305 38.9365 158.691 37.9554C163.185 35.7015 167.979 37.5829 168.746 37.9118C170.467 38.6162 200.996 51.1163 207.594 54.261C214.393 57.5023 216.207 63.3248 216.207 66.2535C216.207 79.5159 213.913 91.9108 209.387 103.093C205.733 112.145 200.553 120.502 194.073 127.799C181.572 141.882 169.068 146.875 168.947 146.918C167.453 147.433 165.88 147.685 164.3 147.661L164.301 147.662ZM161.36 140.371C162.444 140.614 164.94 140.979 166.567 140.385C168.634 139.631 179.1 134.198 188.88 123.18C202.393 107.956 209.249 88.8207 209.26 66.3028C209.235 65.8465 208.912 62.5929 204.608 60.5411C198.138 57.4571 166.405 44.4679 166.085 44.3373L165.998 44.2999C165.333 44.021 163.216 43.4333 161.757 44.1984L161.465 44.3348C161.112 44.4802 126.055 58.8937 122.316 60.4532C119.701 61.544 118.769 64.2464 118.769 66.412C118.769 66.5702 118.765 66.8006 118.759 67.0979C118.46 82.5058 122.022 120.419 161.36 140.37V140.371Z" fill="#3F3D56"/>
<path d="M160.06 41.0229C160.06 41.0229 124.685 55.5674 120.895 57.1486C117.104 58.7298 115.209 62.5235 115.209 66.3179C115.209 70.1124 112.367 119.621 160.06 143.558C160.06 143.558 164.389 144.757 167.673 143.558C170.957 142.359 212.649 122.122 212.649 66.1594C212.649 66.1594 212.649 60.4683 206.016 57.3063C199.383 54.1443 167.315 41.0233 167.315 41.0233C167.315 41.0233 163.377 39.2831 160.06 41.0229Z" fill="#5CC10E"/>
<path opacity="0.1" d="M163.935 52.4998V130.087C163.935 130.087 128.244 112.889 128.56 67.6752L163.935 52.4998Z" fill="#DADADA"/>
<path d="M159.335 110.903C158.23 110.905 157.154 110.547 156.27 109.884L156.215 109.843L144.675 100.998C144.123 100.595 143.657 100.085 143.305 99.4985C142.952 98.9123 142.72 98.2615 142.623 97.5843C142.525 96.9071 142.564 96.2173 142.736 95.5553C142.909 94.8933 143.212 94.2725 143.628 93.7294C144.043 93.1863 144.563 92.7318 145.157 92.3927C145.75 92.0536 146.406 91.8367 147.084 91.7548C147.763 91.6728 148.451 91.7274 149.108 91.9155C149.765 92.1035 150.378 92.4211 150.911 92.8496L158.386 98.5875L176.051 75.5263C176.878 74.4464 178.101 73.7396 179.449 73.5615C180.797 73.3834 182.16 73.7484 183.239 74.5763L183.129 74.7258L183.242 74.5788C184.32 75.408 185.025 76.6313 185.203 77.9803C185.381 79.3293 185.017 80.6939 184.191 81.7747L163.413 108.9C162.933 109.525 162.315 110.031 161.607 110.379C160.9 110.726 160.122 110.905 159.334 110.903L159.335 110.903Z" fill="white"/>
<path d="M170.975 171.263H154.564C151.845 171.263 149.641 173.47 149.641 176.192C149.641 178.914 151.845 181.12 154.564 181.12H170.975C173.694 181.12 175.898 178.914 175.898 176.192C175.898 173.47 173.694 171.263 170.975 171.263Z" fill="#E6E6E6"/>
<path d="M172.821 182.352C176.107 182.352 178.77 179.686 178.77 176.397C178.77 173.108 176.107 170.442 172.821 170.442C169.536 170.442 166.872 173.108 166.872 176.397C166.872 179.686 169.536 182.352 172.821 182.352Z" fill="#5CC10E"/>
</svg>
